<svg id="visual" viewBox="0 0 1000 200" width="1000" height="200" xmlns="http://www.w3.org/2000/svg" xmlns:xlink="http://www.w3.org/1999/xlink" version="1.1"><path d="M0 72L20.8 70.7C41.7 69.3 83.3 66.7 125 64C166.7 61.3 208.3 58.7 250 60.7C291.7 62.7 333.3 69.3 375 72.8C416.7 76.3 458.3 76.7 500 73C541.7 69.3 583.3 61.7 625 57.2C666.7 52.7 708.3 51.3 750 55.2C791.7 59 833.3 68 875 72.8C916.7 77.7 958.3 78.3 979.2 78.7L1000 79L1000 201L979.2 201C958.3 201 916.7 201 875 201C833.3 201 791.7 201 750 201C708.3 201 666.7 201 625 201C583.3 201 541.7 201 500 201C458.3 201 416.7 201 375 201C333.3 201 291.7 201 250 201C208.3 201 166.7 201 125 201C83.3 201 41.7 201 20.8 201L0 201Z" fill="#f7770f"></path><path d="M0 99L20.8 97.5C41.7 96 83.3 93 125 95.5C166.7 98 208.3 106 250 110.2C291.7 114.3 333.3 114.7 375 111.2C416.7 107.7 458.3 100.3 500 97.5C541.7 94.7 583.3 96.3 625 97.2C666.7 98 708.3 98 750 101C791.7 104 833.3 110 875 112.5C916.7 115 958.3 114 979.2 113.5L1000 113L1000 201L979.2 201C958.3 201 916.7 201 875 201C833.3 201 791.7 201 750 201C708.3 201 666.7 201 625 201C583.3 201 541.7 201 500 201C458.3 201 416.7 201 375 201C333.3 201 291.7 201 250 201C208.3 201 166.7 201 125 201C83.3 201 41.7 201 20.8 201L0 201Z" fill="#d14e25"></path><path d="M0 157L20.8 153.5C41.7 150 83.3 143 125 139.7C166.7 136.3 208.3 136.7 250 139.8C291.7 143 333.3 149 375 151.2C416.7 153.3 458.3 151.7 500 151.3C541.7 151 583.3 152 625 149.8C666.7 147.7 708.3 142.3 750 139.2C791.7 136 833.3 135 875 138.5C916.7 142 958.3 150 979.2 154L1000 158L1000 201L979.2 201C958.3 201 916.7 201 875 201C833.3 201 791.7 201 750 201C708.3 201 666.7 201 625 201C583.3 201 541.7 201 500 201C458.3 201 416.7 201 375 201C333.3 201 291.7 201 250 201C208.3 201 166.7 201 125 201C83.3 201 41.7 201 20.8 201L0 201Z" fill="#a52a2a"></path></svg>